G04 DipTrace 2.3.1.0*
%INBottom.gbr*%
%MOMM*%
%ADD14C,0.3*%
%ADD16C,1.0*%
%ADD17C,0.1*%
%ADD21O,4.0X1.6*%
%ADD27R,1.5X1.5*%
%ADD28C,0.7*%
%ADD30C,0.6*%
%FSLAX53Y53*%
G04*
G71*
G90*
G75*
G01*
%LNBottom*%
%LPD*%
X22320Y21550D2*
D14*
X28360Y15510D1*
X38290D1*
X40300Y13500D1*
X16760Y15874D2*
Y16509D1*
X17395D1*
Y15874D1*
X16760D1*
X17105Y16219D1*
X17395Y16509D1*
X16760D2*
X17395Y15874D1*
X24764Y30320D2*
X25399D1*
Y29685D1*
X24764D1*
Y30320D1*
X25399Y29685D1*
Y30320D2*
X24764Y29685D1*
Y29970D1*
D16*
X23461D1*
X17105Y23614D1*
Y16219D1*
X39890Y29730D2*
D14*
X39790D1*
X38600Y28540D1*
X31320D1*
X28160Y25380D1*
X32384Y29685D2*
X32225D1*
X31749Y30320D2*
X32384D1*
Y29685D1*
X31749D1*
Y30320D1*
X51275D2*
X50322D1*
X49370D2*
X50322D1*
X49370D2*
X41591D1*
X41274Y30637D1*
X32701D1*
X32384Y30320D1*
X31749Y29685D2*
X28098D1*
X24355Y25942D1*
X24129Y25716D1*
X22382D1*
X18890Y22224D1*
Y15239D1*
X17779Y14127D1*
X16191D1*
X15239Y15080D1*
X12671D1*
X12640Y15049D1*
X27939Y18573D2*
Y22358D1*
X24355Y25942D1*
X27939Y20477D2*
Y19843D1*
Y19207D1*
Y18573D1*
X40480Y20478D2*
Y19843D1*
Y19208D1*
Y18573D1*
X27939D1*
X39200Y13520D2*
X39160D1*
X37770Y14910D1*
X27800D1*
X20730Y21980D1*
X33200Y13520D2*
X32440Y14280D1*
X27270D1*
X27010Y14540D1*
X21500D1*
X31200Y13520D2*
X27260D1*
X27020Y13280D1*
X20230D1*
X19510Y12560D1*
Y11960D1*
D28*
X40300Y13500D3*
X39200Y13520D3*
X20730Y21980D3*
X22320Y21550D3*
D30*
X16760Y16509D3*
X17395D3*
X16760Y15874D3*
X17395D3*
X24764Y30320D3*
X25399D3*
X24764Y29685D3*
X25399D3*
X49370Y30320D3*
X50322D3*
X51275D3*
X31749D3*
X32384D3*
X31749Y29685D3*
X32384D3*
X27939Y20477D3*
D28*
X39890Y29730D3*
X28160Y25380D3*
X19510Y11960D3*
X31200Y13520D3*
X33200D3*
D30*
X40480Y20478D3*
X27939Y19843D3*
X40480D3*
X27939Y19207D3*
X40480Y19208D3*
X27939Y18573D3*
X40480D3*
X26040Y11640D3*
X12720Y29355D3*
X13355D3*
X12720Y28720D3*
X13355D3*
X10696Y30717D2*
D17*
X23039D1*
X26103D2*
X51803D1*
X10696Y30621D2*
X22899D1*
X26103D2*
X51803D1*
X10696Y30524D2*
X22799D1*
X26103D2*
X51803D1*
X10696Y30427D2*
X22702D1*
X26103D2*
X39786D1*
X39994D2*
X51803D1*
X10696Y30331D2*
X22605D1*
X26103D2*
X39513D1*
X40267D2*
X51803D1*
X10696Y30234D2*
X22508D1*
X26103D2*
X39389D1*
X40391D2*
X51803D1*
X10696Y30137D2*
X22411D1*
X26103D2*
X39306D1*
X40473D2*
X51803D1*
X10696Y30041D2*
X22314D1*
X26103D2*
X39249D1*
X40531D2*
X51803D1*
X10696Y29944D2*
X22217D1*
X26103D2*
X39210D1*
X40570D2*
X51803D1*
X10696Y29847D2*
X22122D1*
X26103D2*
X39185D1*
X40594D2*
X51803D1*
X10696Y29751D2*
X22025D1*
X26103D2*
X39088D1*
X40603D2*
X51803D1*
X10696Y29654D2*
X21928D1*
X26103D2*
X38992D1*
X40600D2*
X51803D1*
X10696Y29557D2*
X21831D1*
X26103D2*
X38896D1*
X40583D2*
X51803D1*
X10696Y29461D2*
X21735D1*
X26103D2*
X38799D1*
X40550D2*
X51803D1*
X10696Y29364D2*
X21638D1*
X26103D2*
X38702D1*
X40501D2*
X51803D1*
X10696Y29267D2*
X21541D1*
X26103D2*
X38605D1*
X40430D2*
X51803D1*
X10696Y29171D2*
X21444D1*
X26103D2*
X38508D1*
X40326D2*
X51803D1*
X10696Y29074D2*
X21349D1*
X23783D2*
X24066D1*
X26103D2*
X38411D1*
X40155D2*
X51803D1*
X10696Y28977D2*
X21252D1*
X23686D2*
X24066D1*
X26103D2*
X31060D1*
X39759D2*
X51803D1*
X10696Y28881D2*
X21155D1*
X23589D2*
X30938D1*
X39662D2*
X51803D1*
X10696Y28784D2*
X21058D1*
X23492D2*
X30842D1*
X39566D2*
X51803D1*
X10696Y28687D2*
X20961D1*
X23395D2*
X30746D1*
X39470D2*
X51803D1*
X10696Y28591D2*
X20864D1*
X23300D2*
X30649D1*
X39373D2*
X51803D1*
X10696Y28494D2*
X20767D1*
X23203D2*
X30552D1*
X39276D2*
X51803D1*
X10696Y28397D2*
X20672D1*
X23106D2*
X30455D1*
X39180D2*
X51803D1*
X10696Y28301D2*
X20575D1*
X23009D2*
X30358D1*
X39083D2*
X51803D1*
X10696Y28204D2*
X20478D1*
X22912D2*
X30261D1*
X38986D2*
X41578D1*
X10696Y28107D2*
X20381D1*
X22816D2*
X30164D1*
X38867D2*
X41528D1*
X10696Y28011D2*
X20285D1*
X22719D2*
X30069D1*
X31512D2*
X41524D1*
X10696Y27914D2*
X20188D1*
X22622D2*
X29972D1*
X31416D2*
X41524D1*
X10696Y27817D2*
X20091D1*
X22526D2*
X29875D1*
X31320D2*
X41524D1*
X10696Y27721D2*
X19994D1*
X22430D2*
X29778D1*
X31223D2*
X41524D1*
X10696Y27624D2*
X19899D1*
X22333D2*
X29681D1*
X31126D2*
X41524D1*
X10696Y27527D2*
X19802D1*
X22236D2*
X29585D1*
X31030D2*
X41524D1*
X10696Y27431D2*
X19705D1*
X22139D2*
X29488D1*
X30933D2*
X41524D1*
X10696Y27334D2*
X19608D1*
X22042D2*
X29392D1*
X30836D2*
X41524D1*
X10696Y27237D2*
X19511D1*
X21945D2*
X29296D1*
X30739D2*
X41524D1*
X10696Y27141D2*
X19414D1*
X21850D2*
X29199D1*
X30644D2*
X41524D1*
X10696Y27044D2*
X19317D1*
X21753D2*
X29102D1*
X30547D2*
X41524D1*
X10696Y26947D2*
X19222D1*
X21656D2*
X29005D1*
X30450D2*
X41524D1*
X10696Y26851D2*
X19125D1*
X21559D2*
X28908D1*
X30353D2*
X41524D1*
X10696Y26754D2*
X19028D1*
X21462D2*
X28811D1*
X30256D2*
X41524D1*
X10696Y26657D2*
X18931D1*
X21366D2*
X28714D1*
X30159D2*
X41524D1*
X10696Y26561D2*
X18835D1*
X21269D2*
X28619D1*
X30062D2*
X41524D1*
X10696Y26464D2*
X18738D1*
X21172D2*
X28522D1*
X29966D2*
X41524D1*
X10696Y26367D2*
X18641D1*
X21076D2*
X28425D1*
X29870D2*
X41524D1*
X10696Y26271D2*
X18544D1*
X20980D2*
X28328D1*
X29773D2*
X41524D1*
X10696Y26174D2*
X18449D1*
X20883D2*
X28231D1*
X29676D2*
X41524D1*
X10696Y26077D2*
X18352D1*
X20786D2*
X28056D1*
X29580D2*
X41524D1*
X10696Y25981D2*
X18255D1*
X20689D2*
X27783D1*
X29483D2*
X41524D1*
X10696Y25884D2*
X18158D1*
X20592D2*
X27660D1*
X29386D2*
X41524D1*
X10696Y25787D2*
X18061D1*
X20495D2*
X27577D1*
X29289D2*
X41524D1*
X10696Y25691D2*
X17964D1*
X20400D2*
X27519D1*
X29194D2*
X41524D1*
X10696Y25594D2*
X17867D1*
X20303D2*
X27480D1*
X29097D2*
X41524D1*
X10696Y25497D2*
X17772D1*
X20206D2*
X27456D1*
X29000D2*
X41524D1*
X10696Y25401D2*
X17675D1*
X20109D2*
X27447D1*
X28903D2*
X41524D1*
X10696Y25304D2*
X17578D1*
X20012D2*
X27450D1*
X28870D2*
X41524D1*
X10696Y25207D2*
X17481D1*
X19916D2*
X27467D1*
X28851D2*
X41524D1*
X10696Y25111D2*
X17385D1*
X19819D2*
X27500D1*
X28820D2*
X41524D1*
X10696Y25014D2*
X17288D1*
X19722D2*
X27549D1*
X28770D2*
X41524D1*
X10696Y24917D2*
X17191D1*
X19626D2*
X27621D1*
X28700D2*
X41524D1*
X10696Y24821D2*
X17094D1*
X19530D2*
X27724D1*
X28597D2*
X41524D1*
X10696Y24724D2*
X16999D1*
X19433D2*
X27896D1*
X28425D2*
X41524D1*
X10696Y24627D2*
X16902D1*
X19336D2*
X41524D1*
X10696Y24531D2*
X16805D1*
X19239D2*
X41524D1*
X10696Y24434D2*
X16708D1*
X19142D2*
X41524D1*
X10696Y24337D2*
X16611D1*
X19045D2*
X41524D1*
X10696Y24241D2*
X16514D1*
X18950D2*
X41524D1*
X10696Y24144D2*
X16427D1*
X18853D2*
X41524D1*
X10696Y24047D2*
X12286D1*
X12994D2*
X16360D1*
X18756D2*
X41524D1*
X10696Y23951D2*
X12072D1*
X13208D2*
X16311D1*
X18659D2*
X41524D1*
X10696Y23854D2*
X11933D1*
X13348D2*
X16275D1*
X18562D2*
X41524D1*
X10696Y23757D2*
X11828D1*
X13451D2*
X16253D1*
X18466D2*
X41524D1*
X10696Y23661D2*
X11747D1*
X13533D2*
X16242D1*
X18369D2*
X41524D1*
X10696Y23564D2*
X11681D1*
X13598D2*
X16241D1*
X18272D2*
X41524D1*
X10696Y23467D2*
X11631D1*
X13650D2*
X16241D1*
X18176D2*
X41524D1*
X10696Y23371D2*
X11591D1*
X13689D2*
X16241D1*
X18080D2*
X41524D1*
X10696Y23274D2*
X11561D1*
X13719D2*
X16241D1*
X17983D2*
X41524D1*
X10696Y23177D2*
X11541D1*
X13739D2*
X16241D1*
X17969D2*
X41524D1*
X10696Y23081D2*
X11530D1*
X13750D2*
X16241D1*
X17969D2*
X41524D1*
X10696Y22984D2*
X11527D1*
X13753D2*
X16241D1*
X17969D2*
X41524D1*
X10696Y22887D2*
X11531D1*
X13748D2*
X16241D1*
X17969D2*
X41524D1*
X10696Y22791D2*
X11546D1*
X13734D2*
X16241D1*
X17969D2*
X41524D1*
X10696Y22694D2*
X11569D1*
X13711D2*
X16241D1*
X17969D2*
X41524D1*
X10696Y22597D2*
X11602D1*
X13678D2*
X16241D1*
X17969D2*
X20383D1*
X21078D2*
X41524D1*
X10696Y22501D2*
X11646D1*
X13634D2*
X16241D1*
X17969D2*
X20247D1*
X21214D2*
X41524D1*
X10696Y22404D2*
X11700D1*
X13580D2*
X16241D1*
X17969D2*
X20158D1*
X21301D2*
X41524D1*
X10696Y22307D2*
X11769D1*
X13511D2*
X16241D1*
X17969D2*
X20097D1*
X21362D2*
X41524D1*
X10696Y22211D2*
X11858D1*
X13423D2*
X16241D1*
X17969D2*
X20055D1*
X21405D2*
X22067D1*
X22572D2*
X41524D1*
X10696Y22114D2*
X11971D1*
X13309D2*
X16241D1*
X17969D2*
X20030D1*
X21431D2*
X21889D1*
X22751D2*
X41524D1*
X10696Y22017D2*
X12125D1*
X13155D2*
X16241D1*
X17969D2*
X20017D1*
X21442D2*
X21785D1*
X22856D2*
X41524D1*
X10696Y21921D2*
X12394D1*
X12886D2*
X16241D1*
X17969D2*
X20019D1*
X21512D2*
X21711D1*
X22928D2*
X41524D1*
X10696Y21824D2*
X16241D1*
X17969D2*
X20035D1*
X21608D2*
X21661D1*
X22978D2*
X41524D1*
X10696Y21727D2*
X16241D1*
X17969D2*
X20063D1*
X23011D2*
X41524D1*
X10696Y21631D2*
X16241D1*
X17969D2*
X20110D1*
X23030D2*
X41524D1*
X10696Y21534D2*
X16241D1*
X17969D2*
X20175D1*
X23058D2*
X41524D1*
X10696Y21437D2*
X16241D1*
X17969D2*
X20272D1*
X23155D2*
X41524D1*
X10696Y21341D2*
X16241D1*
X17969D2*
X20427D1*
X23251D2*
X41524D1*
X10696Y21244D2*
X16241D1*
X17969D2*
X20744D1*
X23348D2*
X41524D1*
X10696Y21147D2*
X16241D1*
X17969D2*
X20841D1*
X23445D2*
X41524D1*
X10696Y21051D2*
X16241D1*
X17969D2*
X20938D1*
X23542D2*
X41524D1*
X10696Y20954D2*
X16241D1*
X17969D2*
X21033D1*
X23639D2*
X41524D1*
X10696Y20857D2*
X16241D1*
X17969D2*
X21130D1*
X23734D2*
X41524D1*
X10696Y20761D2*
X16241D1*
X17969D2*
X21227D1*
X23831D2*
X41524D1*
X10696Y20664D2*
X16241D1*
X17969D2*
X21324D1*
X23928D2*
X41524D1*
X10696Y20567D2*
X16241D1*
X17969D2*
X21421D1*
X24025D2*
X41524D1*
X10696Y20471D2*
X16241D1*
X17969D2*
X21517D1*
X24122D2*
X41524D1*
X10696Y20374D2*
X16241D1*
X17969D2*
X21614D1*
X24219D2*
X41524D1*
X10696Y20277D2*
X16241D1*
X17969D2*
X21710D1*
X24316D2*
X41524D1*
X10696Y20181D2*
X16241D1*
X17969D2*
X21806D1*
X24412D2*
X41524D1*
X10696Y20084D2*
X16241D1*
X17969D2*
X21903D1*
X24508D2*
X41524D1*
X10696Y19987D2*
X16241D1*
X17969D2*
X22000D1*
X24605D2*
X41524D1*
X10696Y19891D2*
X16241D1*
X17969D2*
X22097D1*
X24701D2*
X41524D1*
X10696Y19794D2*
X16241D1*
X17969D2*
X22194D1*
X24798D2*
X41524D1*
X10696Y19697D2*
X16241D1*
X17969D2*
X22291D1*
X24895D2*
X41524D1*
X10696Y19601D2*
X12567D1*
X12712D2*
X16241D1*
X17969D2*
X22388D1*
X24992D2*
X41524D1*
X10696Y19504D2*
X12175D1*
X13106D2*
X16241D1*
X17969D2*
X22483D1*
X25089D2*
X41524D1*
X10696Y19407D2*
X12003D1*
X13276D2*
X16241D1*
X17969D2*
X22580D1*
X25184D2*
X41524D1*
X10696Y19311D2*
X11883D1*
X13397D2*
X16241D1*
X17969D2*
X22677D1*
X25281D2*
X41524D1*
X10696Y19214D2*
X11789D1*
X13491D2*
X16241D1*
X17969D2*
X22774D1*
X25378D2*
X41524D1*
X10696Y19117D2*
X11716D1*
X13564D2*
X16241D1*
X17969D2*
X22871D1*
X25475D2*
X41524D1*
X10696Y19021D2*
X11658D1*
X13622D2*
X16241D1*
X17969D2*
X22967D1*
X25572D2*
X41524D1*
X10696Y18924D2*
X11611D1*
X13669D2*
X16241D1*
X17969D2*
X23064D1*
X25669D2*
X41524D1*
X10696Y18827D2*
X11577D1*
X13703D2*
X16241D1*
X17969D2*
X23160D1*
X25766D2*
X41524D1*
X10696Y18731D2*
X11550D1*
X13730D2*
X16241D1*
X17969D2*
X23256D1*
X25862D2*
X41524D1*
X10696Y18634D2*
X11535D1*
X13745D2*
X16241D1*
X17969D2*
X23353D1*
X25958D2*
X41524D1*
X10696Y18537D2*
X11527D1*
X13753D2*
X16241D1*
X17969D2*
X23450D1*
X26055D2*
X41524D1*
X10696Y18441D2*
X11528D1*
X13751D2*
X16241D1*
X17969D2*
X23547D1*
X26151D2*
X41524D1*
X10696Y18344D2*
X11538D1*
X13742D2*
X16241D1*
X17969D2*
X23644D1*
X26248D2*
X41524D1*
X10696Y18247D2*
X11555D1*
X13725D2*
X16241D1*
X17969D2*
X23741D1*
X26345D2*
X41524D1*
X10696Y18151D2*
X11583D1*
X13697D2*
X16241D1*
X17969D2*
X23838D1*
X26442D2*
X41524D1*
X10696Y18054D2*
X11621D1*
X13661D2*
X16241D1*
X17969D2*
X23933D1*
X26539D2*
X41524D1*
X10696Y17957D2*
X11669D1*
X13612D2*
X16241D1*
X17969D2*
X24030D1*
X26634D2*
X41524D1*
X10696Y17861D2*
X11730D1*
X13550D2*
X16241D1*
X17969D2*
X24127D1*
X26731D2*
X41524D1*
X10696Y17764D2*
X11806D1*
X13473D2*
X16241D1*
X17969D2*
X24224D1*
X26828D2*
X41524D1*
X10696Y17667D2*
X11905D1*
X13376D2*
X16241D1*
X17969D2*
X24321D1*
X26925D2*
X41524D1*
X10696Y17571D2*
X12033D1*
X13247D2*
X16241D1*
X17969D2*
X24417D1*
X27022D2*
X41524D1*
X10696Y17474D2*
X12221D1*
X13059D2*
X16241D1*
X17969D2*
X24514D1*
X27119D2*
X41524D1*
X10696Y17377D2*
X16241D1*
X17969D2*
X24610D1*
X27216D2*
X41524D1*
X10696Y17281D2*
X16241D1*
X17969D2*
X24706D1*
X27312D2*
X41524D1*
X10696Y17184D2*
X16241D1*
X17969D2*
X24803D1*
X27408D2*
X41524D1*
X10696Y17087D2*
X16097D1*
X18114D2*
X24900D1*
X27505D2*
X41524D1*
X10696Y16991D2*
X16097D1*
X18114D2*
X24997D1*
X27601D2*
X41524D1*
X10696Y16894D2*
X16097D1*
X18114D2*
X25094D1*
X27698D2*
X41524D1*
X10696Y16797D2*
X16097D1*
X18114D2*
X25191D1*
X27795D2*
X41524D1*
X10696Y16701D2*
X16097D1*
X18114D2*
X25288D1*
X27892D2*
X41524D1*
X10696Y16604D2*
X16097D1*
X18114D2*
X25383D1*
X27989D2*
X41524D1*
X10696Y16507D2*
X16097D1*
X18114D2*
X25480D1*
X28084D2*
X41524D1*
X10696Y16411D2*
X16097D1*
X18114D2*
X25577D1*
X28181D2*
X41524D1*
X10696Y16314D2*
X16097D1*
X18114D2*
X25674D1*
X28278D2*
X41524D1*
X10696Y16217D2*
X16097D1*
X18114D2*
X25771D1*
X28375D2*
X41524D1*
X10696Y16121D2*
X16097D1*
X18114D2*
X25867D1*
X28472D2*
X41524D1*
X10696Y16024D2*
X16097D1*
X18114D2*
X25964D1*
X28569D2*
X41524D1*
X10696Y15927D2*
X16097D1*
X18114D2*
X26060D1*
X38583D2*
X41524D1*
X10696Y15831D2*
X16097D1*
X18114D2*
X26156D1*
X38692D2*
X41524D1*
X10696Y15734D2*
X16097D1*
X18114D2*
X26253D1*
X38789D2*
X41524D1*
X10696Y15637D2*
X16097D1*
X18114D2*
X20386D1*
X22614D2*
X26350D1*
X38884D2*
X41524D1*
X10696Y15541D2*
X16097D1*
X18114D2*
X20386D1*
X22614D2*
X26447D1*
X38981D2*
X41524D1*
X10696Y15444D2*
X16097D1*
X18114D2*
X20386D1*
X22614D2*
X26544D1*
X39078D2*
X41524D1*
X10696Y15347D2*
X16097D1*
X18114D2*
X20386D1*
X22614D2*
X26641D1*
X39175D2*
X41524D1*
X10696Y15251D2*
X16097D1*
X18114D2*
X20386D1*
X22614D2*
X26738D1*
X39272D2*
X41524D1*
X10696Y15154D2*
X20386D1*
X22614D2*
X26833D1*
X39369D2*
X41524D1*
X10696Y15057D2*
X20386D1*
X22614D2*
X26930D1*
X39466D2*
X41524D1*
X10696Y14961D2*
X20386D1*
X39562D2*
X41524D1*
X10696Y14864D2*
X20386D1*
X39658D2*
X41524D1*
X10696Y14767D2*
X20386D1*
X39755D2*
X41524D1*
X10696Y14671D2*
X20386D1*
X39851D2*
X41524D1*
X10696Y14574D2*
X20386D1*
X39948D2*
X41524D1*
X10696Y14477D2*
X20386D1*
X40045D2*
X41524D1*
X10696Y14381D2*
X20386D1*
X33062D2*
X37577D1*
X40142D2*
X41524D1*
X10696Y14284D2*
X20386D1*
X33158D2*
X37674D1*
X40239D2*
X41524D1*
X10696Y14187D2*
X20386D1*
X33433D2*
X37771D1*
X40461D2*
X41524D1*
X10696Y14091D2*
X20386D1*
X33622D2*
X37867D1*
X40692D2*
X41524D1*
X10696Y13994D2*
X20386D1*
X33730D2*
X37964D1*
X40811D2*
X41524D1*
X10696Y13897D2*
X20386D1*
X33805D2*
X38060D1*
X40891D2*
X41524D1*
X10696Y13801D2*
X20386D1*
X33855D2*
X38156D1*
X40947D2*
X41524D1*
X10696Y13704D2*
X19949D1*
X31889D2*
X32294D1*
X33889D2*
X38253D1*
X40983D2*
X41524D1*
X10696Y13607D2*
X19835D1*
X31908D2*
X32391D1*
X33908D2*
X38350D1*
X41006D2*
X41524D1*
X10696Y13511D2*
X14441D1*
X15459D2*
X19738D1*
X31914D2*
X32486D1*
X33914D2*
X38447D1*
X41014D2*
X41524D1*
X10696Y13414D2*
X14216D1*
X15684D2*
X19642D1*
X31906D2*
X32494D1*
X33906D2*
X38494D1*
X41008D2*
X41524D1*
X10696Y13317D2*
X14056D1*
X15844D2*
X19546D1*
X31884D2*
X32516D1*
X33884D2*
X38516D1*
X40989D2*
X41524D1*
X10696Y13221D2*
X13931D1*
X15969D2*
X19449D1*
X31847D2*
X32553D1*
X33847D2*
X38553D1*
X40956D2*
X41524D1*
X10696Y13124D2*
X13828D1*
X16072D2*
X19352D1*
X31792D2*
X32608D1*
X33792D2*
X38608D1*
X40905D2*
X41524D1*
X10696Y13027D2*
X13741D1*
X16159D2*
X19255D1*
X31712D2*
X32688D1*
X33712D2*
X38688D1*
X39712D2*
X39769D1*
X40831D2*
X41524D1*
X10696Y12931D2*
X13667D1*
X16233D2*
X19158D1*
X27394D2*
X30805D1*
X31595D2*
X32805D1*
X33595D2*
X38805D1*
X39595D2*
X39877D1*
X40723D2*
X41524D1*
X10696Y12834D2*
X13605D1*
X16295D2*
X19077D1*
X27264D2*
X31033D1*
X31367D2*
X33033D1*
X33367D2*
X39033D1*
X39367D2*
X40063D1*
X40537D2*
X41524D1*
X10696Y12737D2*
X13552D1*
X16348D2*
X19028D1*
X20409D2*
X41524D1*
X10696Y12641D2*
X13508D1*
X16392D2*
X19003D1*
X20312D2*
X41524D1*
X10696Y12544D2*
X13471D1*
X16430D2*
X18997D1*
X20216D2*
X41524D1*
X10696Y12447D2*
X13441D1*
X16459D2*
X18992D1*
X20120D2*
X41524D1*
X10696Y12351D2*
X13419D1*
X16481D2*
X18914D1*
X20105D2*
X41524D1*
X10696Y12254D2*
X13402D1*
X16498D2*
X18861D1*
X20159D2*
X41524D1*
X10696Y12157D2*
X13391D1*
X16509D2*
X18825D1*
X20195D2*
X41524D1*
X10696Y12061D2*
X13388D1*
X16512D2*
X18803D1*
X20217D2*
X41524D1*
X10696Y11964D2*
X13389D1*
X16511D2*
X18797D1*
X20223D2*
X41524D1*
X10696Y11867D2*
X13397D1*
X16503D2*
X18802D1*
X20217D2*
X41524D1*
X10696Y11771D2*
X13411D1*
X16489D2*
X18822D1*
X20198D2*
X41524D1*
X10696Y11674D2*
X13431D1*
X16469D2*
X18856D1*
X20162D2*
X41524D1*
X10696Y11577D2*
X13458D1*
X16442D2*
X18910D1*
X20111D2*
X41524D1*
X10696Y11481D2*
X13491D1*
X16409D2*
X18985D1*
X20036D2*
X41524D1*
X10696Y11384D2*
X13533D1*
X16367D2*
X19096D1*
X19925D2*
X41524D1*
X10696Y11287D2*
X13581D1*
X16319D2*
X19294D1*
X19726D2*
X41524D1*
X10696Y11191D2*
X13639D1*
X16261D2*
X41524D1*
X10696Y11094D2*
X13708D1*
X16192D2*
X41524D1*
X10696Y10997D2*
X13789D1*
X16111D2*
X41524D1*
X10696Y10901D2*
X13885D1*
X16016D2*
X41524D1*
X10696Y10804D2*
X14000D1*
X15900D2*
X41524D1*
X10696Y10707D2*
X14142D1*
X15758D2*
X41524D1*
X16503Y11990D2*
X16490Y11841D1*
X16464Y11693D1*
X16424Y11549D1*
X16369Y11409D1*
X16302Y11275D1*
X16222Y11148D1*
X16130Y11030D1*
X16027Y10921D1*
X15914Y10822D1*
X15792Y10735D1*
X15710Y10686D1*
X41534D1*
X41533Y11220D1*
Y28060D1*
X41539Y28110D1*
X41556Y28156D1*
X41583Y28198D1*
X41619Y28233D1*
X41662Y28258D1*
X41710Y28273D1*
X41750Y28277D1*
X51814D1*
Y30814D1*
X26094D1*
Y28956D1*
X24076D1*
Y29117D1*
X23815Y29116D1*
X17959Y23260D1*
Y17184D1*
X18104D1*
Y15196D1*
X16106D1*
Y17184D1*
X16251D1*
Y23614D1*
X16257Y23714D1*
X16274Y23812D1*
X16303Y23908D1*
X16343Y23999D1*
X16393Y24086D1*
X16453Y24166D1*
X16537Y24253D1*
X22894Y30608D1*
X22972Y30670D1*
X23057Y30722D1*
X23148Y30764D1*
X23243Y30796D1*
X23309Y30810D1*
X23314Y30814D1*
X10686D1*
Y10686D1*
X14191D1*
X14091Y10746D1*
X13970Y10835D1*
X13859Y10935D1*
X13757Y11045D1*
X13667Y11165D1*
X13588Y11292D1*
X13523Y11427D1*
X13470Y11568D1*
X13432Y11713D1*
X13407Y11860D1*
X13397Y12010D1*
X13401Y12160D1*
X13420Y12309D1*
X13453Y12455D1*
X13500Y12597D1*
X13561Y12735D1*
X13634Y12865D1*
X13720Y12988D1*
X13817Y13102D1*
X13925Y13207D1*
X14042Y13300D1*
X14168Y13382D1*
X14301Y13451D1*
X14440Y13507D1*
X14584Y13550D1*
X14731Y13578D1*
X14880Y13592D1*
X15030Y13591D1*
X15179Y13576D1*
X15326Y13547D1*
X15470Y13504D1*
X15609Y13447D1*
X15741Y13377D1*
X15866Y13294D1*
X15983Y13200D1*
X16090Y13095D1*
X16186Y12980D1*
X16271Y12857D1*
X16344Y12725D1*
X16404Y12588D1*
X16450Y12445D1*
X16482Y12299D1*
X16499Y12150D1*
X16503Y12040D1*
Y11990D1*
X13743Y18449D2*
X13734Y18349D1*
X13716Y18251D1*
X13689Y18155D1*
X13654Y18061D1*
X13610Y17971D1*
X13558Y17886D1*
X13499Y17805D1*
X13433Y17730D1*
X13360Y17662D1*
X13281Y17600D1*
X13197Y17546D1*
X13109Y17499D1*
X13016Y17461D1*
X12921Y17431D1*
X12823Y17410D1*
X12724Y17398D1*
X12624Y17395D1*
X12524Y17401D1*
X12426Y17416D1*
X12328Y17440D1*
X12234Y17472D1*
X12143Y17513D1*
X12056Y17562D1*
X11973Y17619D1*
X11896Y17683D1*
X11826Y17753D1*
X11762Y17830D1*
X11705Y17912D1*
X11655Y17999D1*
X11614Y18090D1*
X11582Y18185D1*
X11557Y18282D1*
X11542Y18381D1*
X11536Y18480D1*
X11539Y18580D1*
X11551Y18680D1*
X11572Y18777D1*
X11601Y18873D1*
X11639Y18965D1*
X11686Y19054D1*
X11740Y19138D1*
X11801Y19217D1*
X11870Y19290D1*
X11944Y19356D1*
X12025Y19415D1*
X12110Y19467D1*
X12200Y19511D1*
X12293Y19547D1*
X12390Y19574D1*
X12488Y19592D1*
X12588Y19601D1*
X12688Y19602D1*
X12787Y19593D1*
X12885Y19575D1*
X12982Y19549D1*
X13075Y19513D1*
X13165Y19470D1*
X13251Y19418D1*
X13332Y19359D1*
X13407Y19293D1*
X13475Y19220D1*
X13537Y19142D1*
X13592Y19058D1*
X13638Y18970D1*
X13677Y18878D1*
X13707Y18782D1*
X13728Y18684D1*
X13741Y18585D1*
X13744Y18499D1*
X13743Y18449D1*
Y22949D2*
X13734Y22849D1*
X13716Y22751D1*
X13689Y22655D1*
X13654Y22561D1*
X13610Y22471D1*
X13558Y22386D1*
X13499Y22305D1*
X13433Y22230D1*
X13360Y22162D1*
X13281Y22100D1*
X13197Y22046D1*
X13109Y21999D1*
X13016Y21961D1*
X12921Y21931D1*
X12823Y21910D1*
X12724Y21898D1*
X12624Y21895D1*
X12524Y21901D1*
X12426Y21916D1*
X12328Y21940D1*
X12234Y21972D1*
X12143Y22013D1*
X12056Y22062D1*
X11973Y22119D1*
X11896Y22183D1*
X11826Y22253D1*
X11762Y22330D1*
X11705Y22412D1*
X11655Y22499D1*
X11614Y22590D1*
X11582Y22685D1*
X11557Y22782D1*
X11542Y22881D1*
X11536Y22980D1*
X11539Y23080D1*
X11551Y23180D1*
X11572Y23277D1*
X11601Y23373D1*
X11639Y23465D1*
X11686Y23554D1*
X11740Y23638D1*
X11801Y23717D1*
X11870Y23790D1*
X11944Y23856D1*
X12025Y23915D1*
X12110Y23967D1*
X12200Y24011D1*
X12293Y24047D1*
X12390Y24074D1*
X12488Y24092D1*
X12588Y24101D1*
X12688Y24102D1*
X12787Y24093D1*
X12885Y24075D1*
X12982Y24049D1*
X13075Y24013D1*
X13165Y23970D1*
X13251Y23918D1*
X13332Y23859D1*
X13407Y23793D1*
X13475Y23720D1*
X13537Y23642D1*
X13592Y23558D1*
X13638Y23470D1*
X13677Y23377D1*
X13707Y23282D1*
X13728Y23184D1*
X13741Y23085D1*
X13744Y22999D1*
X13743Y22949D1*
X41002Y13450D2*
X40988Y13351D1*
X40960Y13255D1*
X40919Y13164D1*
X40865Y13080D1*
X40800Y13004D1*
X40725Y12938D1*
X40641Y12884D1*
X40550Y12842D1*
X40455Y12813D1*
X40356Y12798D1*
X40256Y12797D1*
X40157Y12811D1*
X40061Y12838D1*
X39969Y12878D1*
X39885Y12932D1*
X39808Y12996D1*
X39741Y13072D1*
X39700Y13024D1*
X39625Y12959D1*
X39541Y12904D1*
X39450Y12862D1*
X39355Y12833D1*
X39256Y12818D1*
X39156Y12817D1*
X39057Y12831D1*
X38961Y12858D1*
X38869Y12898D1*
X38785Y12952D1*
X38708Y13016D1*
X38642Y13091D1*
X38587Y13174D1*
X38544Y13264D1*
X38514Y13360D1*
X38499Y13458D1*
X38498Y13469D1*
X37561Y14407D1*
X33028Y14406D1*
X33209Y14224D1*
X33282Y14219D1*
X33380Y14200D1*
X33475Y14168D1*
X33564Y14123D1*
X33646Y14065D1*
X33718Y13996D1*
X33780Y13918D1*
X33831Y13832D1*
X33869Y13740D1*
X33893Y13643D1*
X33904Y13543D1*
X33902Y13470D1*
X33888Y13371D1*
X33860Y13275D1*
X33819Y13184D1*
X33765Y13100D1*
X33700Y13024D1*
X33625Y12959D1*
X33541Y12904D1*
X33450Y12862D1*
X33355Y12833D1*
X33256Y12818D1*
X33156Y12817D1*
X33057Y12831D1*
X32961Y12858D1*
X32869Y12898D1*
X32785Y12952D1*
X32708Y13016D1*
X32642Y13091D1*
X32587Y13174D1*
X32544Y13264D1*
X32514Y13360D1*
X32499Y13458D1*
X32496Y13513D1*
X32384Y13623D1*
X32230Y13777D1*
X31854Y13776D1*
X31883Y13692D1*
X31900Y13593D1*
X31904Y13520D1*
X31897Y13420D1*
X31876Y13323D1*
X31841Y13229D1*
X31793Y13141D1*
X31734Y13061D1*
X31663Y12990D1*
X31584Y12930D1*
X31496Y12881D1*
X31403Y12846D1*
X31305Y12824D1*
X31206Y12816D1*
X31106Y12822D1*
X31008Y12843D1*
X30914Y12877D1*
X30826Y12923D1*
X30745Y12982D1*
X30707Y13017D1*
X30450Y13016D1*
X27467D1*
X27376Y12924D1*
X27299Y12860D1*
X27211Y12814D1*
X27115Y12785D1*
X27016Y12776D1*
X20437D1*
X20062Y12399D1*
X20117Y12316D1*
X20162Y12227D1*
X20193Y12132D1*
X20210Y12033D1*
X20214Y11960D1*
X20207Y11860D1*
X20186Y11763D1*
X20151Y11669D1*
X20103Y11581D1*
X20044Y11501D1*
X19973Y11430D1*
X19894Y11370D1*
X19806Y11321D1*
X19713Y11286D1*
X19615Y11264D1*
X19516Y11256D1*
X19416Y11262D1*
X19318Y11283D1*
X19224Y11317D1*
X19136Y11364D1*
X19055Y11422D1*
X18984Y11492D1*
X18923Y11571D1*
X18874Y11658D1*
X18838Y11752D1*
X18815Y11849D1*
X18806Y11948D1*
X18812Y12048D1*
X18831Y12146D1*
X18864Y12240D1*
X18910Y12329D1*
X18969Y12410D1*
X19005Y12451D1*
X19008Y12610D1*
X19028Y12708D1*
X19067Y12800D1*
X19123Y12883D1*
X19189Y12952D1*
X19911Y13670D1*
X19994Y13725D1*
X20086Y13763D1*
X20184Y13782D1*
X20280Y13784D1*
X20396Y13786D1*
Y15644D1*
X22604D1*
Y15042D1*
X22900Y15044D1*
X26955D1*
X26701Y15296D1*
X20721Y21277D1*
X20636Y21282D1*
X20538Y21303D1*
X20444Y21337D1*
X20356Y21383D1*
X20275Y21442D1*
X20204Y21512D1*
X20143Y21591D1*
X20094Y21678D1*
X20058Y21772D1*
X20035Y21869D1*
X20026Y21968D1*
X20032Y22068D1*
X20051Y22166D1*
X20084Y22260D1*
X20130Y22349D1*
X20189Y22430D1*
X20258Y22502D1*
X20337Y22564D1*
X20423Y22614D1*
X20516Y22651D1*
X20613Y22674D1*
X20712Y22684D1*
X20812Y22679D1*
X20910Y22660D1*
X21005Y22628D1*
X21094Y22583D1*
X21176Y22525D1*
X21248Y22456D1*
X21311Y22378D1*
X21361Y22292D1*
X21399Y22200D1*
X21423Y22103D1*
X21434Y22003D1*
Y21988D1*
X21651Y21772D1*
X21696Y21875D1*
X21748Y21961D1*
X21812Y22037D1*
X21886Y22104D1*
X21969Y22160D1*
X22059Y22204D1*
X22154Y22234D1*
X22253Y22251D1*
X22352Y22253D1*
X22452Y22242D1*
X22548Y22216D1*
X22640Y22177D1*
X22726Y22125D1*
X22803Y22062D1*
X22871Y21988D1*
X22927Y21906D1*
X22972Y21817D1*
X23003Y21722D1*
X23020Y21623D1*
X23024Y21558D1*
X24480Y20103D1*
X28569Y16014D1*
X38290D1*
X38389Y16004D1*
X38485Y15975D1*
X38573Y15927D1*
X38649Y15863D1*
X40309Y14204D1*
X40382Y14199D1*
X40480Y14180D1*
X40575Y14148D1*
X40664Y14103D1*
X40746Y14045D1*
X40818Y13976D1*
X40881Y13898D1*
X40931Y13812D1*
X40969Y13720D1*
X40993Y13623D1*
X41004Y13523D1*
X41002Y13450D1*
X40592Y29680D2*
X40578Y29581D1*
X40550Y29485D1*
X40509Y29394D1*
X40455Y29310D1*
X40390Y29234D1*
X40315Y29168D1*
X40231Y29114D1*
X40140Y29072D1*
X40045Y29043D1*
X39946Y29028D1*
X39846Y29027D1*
X39804Y29032D1*
X38956Y28184D1*
X38879Y28120D1*
X38791Y28074D1*
X38695Y28045D1*
X38596Y28036D1*
X31530D1*
X29343Y25850D1*
X28865Y25372D1*
X28857Y25280D1*
X28836Y25183D1*
X28801Y25089D1*
X28753Y25001D1*
X28694Y24921D1*
X28623Y24850D1*
X28544Y24790D1*
X28456Y24741D1*
X28363Y24706D1*
X28265Y24684D1*
X28166Y24676D1*
X28066Y24682D1*
X27968Y24703D1*
X27874Y24737D1*
X27786Y24784D1*
X27705Y24842D1*
X27634Y24912D1*
X27573Y24991D1*
X27524Y25078D1*
X27488Y25171D1*
X27465Y25269D1*
X27456Y25368D1*
X27462Y25468D1*
X27481Y25566D1*
X27514Y25660D1*
X27560Y25749D1*
X27619Y25830D1*
X27688Y25902D1*
X27767Y25964D1*
X27853Y26014D1*
X27946Y26051D1*
X28043Y26074D1*
X28142Y26084D1*
X28150D1*
X30964Y28896D1*
X31041Y28960D1*
X31129Y29006D1*
X31225Y29035D1*
X31324Y29044D1*
X38390D1*
X39197Y29850D1*
X39211Y29916D1*
X39244Y30010D1*
X39290Y30099D1*
X39349Y30180D1*
X39418Y30252D1*
X39497Y30314D1*
X39583Y30364D1*
X39676Y30401D1*
X39773Y30424D1*
X39872Y30434D1*
X39972Y30429D1*
X40070Y30410D1*
X40165Y30378D1*
X40254Y30333D1*
X40336Y30275D1*
X40408Y30206D1*
X40470Y30128D1*
X40521Y30042D1*
X40559Y29950D1*
X40583Y29853D1*
X40594Y29753D1*
X40592Y29680D1*
D21*
X12640Y15049D3*
Y26449D3*
D27*
X21500Y14540D3*
Y12000D3*
G36*
X16460Y16830D2*
X17750D1*
Y15550D1*
X16460D1*
Y16830D1*
G37*
G36*
X24430Y30650D2*
X25740D1*
Y29310D1*
X24430D1*
Y30650D1*
G37*
G36*
X31272Y30754D2*
X32860D1*
Y29209D1*
X31272D1*
Y30754D1*
G37*
M02*
