M48
METRIC,0000.00
T01C0.4
T02C0.9
T03C1.0
T04C1.5
T05C2.0
%
T01
X+004030Y+001350
X+003920Y+001352
X+004048Y+001857
X+004048Y+001921
X+004048Y+001984
X+004048Y+002048
X+003989Y+002973
X+003238Y+002969
X+003238Y+003032
X+003175Y+003032
X+003175Y+002969
X+002816Y+002538
X+002794Y+002048
X+002794Y+001984
X+002794Y+001921
X+002794Y+001857
X+003120Y+001352
X+003320Y+001352
X+002604Y+001164
X+001951Y+001196
X+001739Y+001587
X+001676Y+001587
X+001676Y+001651
X+001739Y+001651
X+002073Y+002198
X+002232Y+002155
X+002476Y+002969
X+002540Y+002969
X+002540Y+003032
X+002476Y+003032
X+001335Y+002936
X+001272Y+002936
X+001272Y+002872
X+001335Y+002872
X+004937Y+003032
X+005032Y+003032
X+005127Y+003032
T02
X+002150Y+001454
X+002150Y+001200
T03
X+001339Y+001505G85X+001189Y+001505
X+001339Y+002645G85X+001189Y+002645
T04
X+001264Y+001850
X+001264Y+002300
T05
X+001495Y+001204
T00
M30
