G04 DipTrace 2.3.1.0*
%INMaskTop.gbr*%
%MOMM*%
%ADD37R,1.3X1.3*%
%ADD39R,1.95X3.05*%
%ADD41R,1.95X0.75*%
%ADD43R,0.8X0.9*%
%ADD45R,0.85X0.45*%
%ADD47O,3.8X1.4*%
%ADD49R,1.8X1.0*%
%ADD51R,0.9X0.8*%
%ADD53R,1.4X1.6*%
%FSLAX53Y53*%
G04*
G71*
G90*
G75*
G01*
%LNTopPaste*%
%LPD*%
D53*
X30221Y29942D3*
X27421D3*
D51*
X45140Y29280D3*
X46840D3*
D49*
X15240Y17249D3*
Y19749D3*
Y21749D3*
Y24249D3*
D47*
X12640Y15049D3*
Y26449D3*
D45*
X21960Y18650D3*
Y20550D3*
X19660Y19600D3*
D43*
X17930Y21410D3*
Y23110D3*
X19450Y23140D3*
Y21440D3*
D51*
X21770Y17070D3*
X20070D3*
D43*
X17900Y19630D3*
Y17930D3*
D51*
X19500Y14630D3*
X17800D3*
D43*
X23730Y11200D3*
Y12900D3*
D51*
X19500Y13000D3*
X17800D3*
X33812Y29744D3*
X35512D3*
X42685D3*
X40985D3*
X37095D3*
X38795D3*
X46830Y27463D3*
X45130D3*
D43*
X39201Y11639D3*
X31201D3*
X27201D3*
X29206D3*
X33206D3*
X39201Y27659D3*
X31201D3*
X35201Y11639D3*
X37206D3*
X27201Y27659D3*
X29206D3*
X33206D3*
X35201D3*
X37206D3*
X41206D3*
D51*
X25596Y16649D3*
Y20649D3*
Y18649D3*
Y24649D3*
Y22649D3*
Y14649D3*
D43*
X41206Y11639D3*
D41*
X22859Y25716D3*
Y28016D3*
Y30316D3*
D39*
X17059Y28016D3*
D37*
X21500Y14540D3*
Y12000D3*
M02*
