G04 DipTrace 2.3.1.0*
%INTop.gbr*%
%MOMM*%
%ADD14C,0.3*%
%ADD15C,0.5*%
%ADD17C,0.1*%
%ADD18R,1.6X1.8*%
%ADD19R,1.1X1.0*%
%ADD20R,2.0X1.2*%
%ADD21O,4.0X1.6*%
%ADD23R,1.05X0.65*%
%ADD24R,1.0X1.1*%
%ADD25R,2.15X0.95*%
%ADD26R,2.15X3.25*%
%ADD27R,1.5X1.5*%
%ADD28C,0.7*%
%ADD30C,0.6*%
%FSLAX53Y53*%
G04*
G71*
G90*
G75*
G01*
%LNTop*%
%LPD*%
X21960Y20550D2*
D14*
X22760D1*
X23050Y20260D1*
Y17380D1*
X22740Y17070D1*
X21770D1*
X21970Y20540D2*
Y21200D1*
X22320Y21550D1*
X41206Y11639D2*
Y12594D1*
X40300Y13500D1*
X15240Y19749D2*
X16791D1*
X16910Y19630D1*
X17900D1*
X18130D1*
X18160Y19600D1*
X19660D1*
X15240Y17249D2*
D15*
X16990D1*
Y17630D1*
X17600D1*
D14*
X17900Y17930D1*
X24764Y29685D2*
X25399D1*
Y30320D1*
X24764D1*
Y29685D1*
X25077Y29999D1*
X25399Y30320D1*
X24764D2*
X25399Y29685D1*
X22859Y30316D2*
D15*
X25077D1*
D14*
Y29999D1*
X15240Y17249D2*
D3*
X16760Y15874D2*
X17395D1*
Y16509D1*
X16760D1*
Y15874D1*
X17092Y16206D1*
X17395Y16509D1*
X16760D2*
X17395Y15874D1*
X16990Y17249D2*
D15*
Y16206D1*
X17092D1*
X17059Y28016D2*
D14*
X22859D1*
X25070D1*
X27304D1*
Y29942D1*
X27421D1*
X27201Y27659D2*
Y29805D1*
X27339Y29942D1*
X27421D1*
X21960Y18650D2*
X21050D1*
X20070Y17670D1*
Y17070D1*
X38795Y29744D2*
X40985D1*
X20070Y17070D2*
Y15930D1*
X22710D1*
X24040Y17260D1*
Y24860D1*
X25070Y25890D1*
Y28016D1*
X39890Y29730D2*
X40971D1*
X39890D2*
X38809D1*
X38795Y29744D1*
X28160Y25380D2*
X27310Y26230D1*
Y27550D1*
X27201Y27659D1*
X17800Y14630D2*
Y13000D1*
Y14630D2*
Y14830D1*
X18900Y15930D1*
X20070D1*
X12640Y26449D2*
X14506D1*
X15240Y25715D1*
Y24249D1*
X12640Y15049D2*
Y15139D1*
X11270Y16509D1*
Y25079D1*
X12640Y26449D1*
Y15049D2*
X12410D1*
Y13740D1*
X15710D1*
X16670Y12780D1*
Y10930D1*
X21500D1*
Y11200D1*
D15*
X23730D1*
X25200D1*
X25639Y11639D1*
X27201D1*
X22859Y25716D2*
D14*
Y24764D1*
X22435Y24340D1*
X19450D1*
X15331D1*
X15240Y24249D1*
X19450Y23140D2*
Y24340D1*
X21500Y12000D2*
Y11200D1*
X31749Y30320D2*
X32384D1*
Y29685D1*
X31749D1*
Y30002D1*
Y30320D1*
X30221Y29942D2*
X31847D1*
X31907Y30002D1*
X31749D1*
X49370Y30320D2*
X50322D1*
X51275D1*
X49370D2*
Y30620D1*
X45200D1*
Y29280D1*
X45140D1*
X27939Y18573D2*
X29840D1*
Y13800D1*
X22720D1*
Y12064D1*
X21564D1*
X21500Y12000D1*
X26040Y11640D2*
X27200D1*
X27201Y11639D1*
X12640Y26449D2*
Y28640D1*
X12720Y28720D1*
Y29355D2*
X13355D1*
Y28720D1*
X12720D1*
X30221Y29942D2*
Y22760D1*
X27939Y20477D1*
X15240Y21749D2*
X16209D1*
X17570Y23110D1*
X17930D1*
Y21410D2*
X19420D1*
X19450Y21440D1*
X20190D1*
X20730Y21980D1*
X39201Y11639D2*
Y13519D1*
X39200Y13520D1*
X19500Y14630D2*
X21410D1*
X21500Y14540D1*
X33200Y13520D2*
Y11645D1*
X33206Y11639D1*
X23730Y12900D2*
X26390D1*
X26780Y13290D1*
X29200D1*
X29260Y13230D1*
Y11693D1*
X29206Y11639D1*
X19500Y13000D2*
X19510Y11960D1*
X31200Y13520D2*
Y11639D1*
X31201D1*
X42685Y29744D2*
Y28555D1*
X41750Y27620D1*
X41245D1*
X41206Y27659D1*
X35512Y29744D2*
Y30710D1*
X42685D1*
Y29744D1*
X33812D2*
Y29367D1*
X34220Y28960D1*
X34696D1*
X35083Y28574D1*
Y27778D1*
X35201Y27659D1*
X37206D2*
Y29744D1*
X37095D1*
X45130Y27463D2*
Y27520D1*
X43120D1*
X41560Y25960D1*
X31780D1*
X31272Y26468D1*
Y27588D1*
X31201Y27659D1*
X46840Y29280D2*
X46830D1*
Y27463D1*
D28*
X40300Y13500D3*
X39200Y13520D3*
X20730Y21980D3*
X22320Y21550D3*
D30*
X16760Y16509D3*
X17395D3*
X16760Y15874D3*
X17395D3*
X24764Y30320D3*
X25399D3*
X24764Y29685D3*
X25399D3*
X49370Y30320D3*
X50322D3*
X51275D3*
X31749D3*
X32384D3*
X31749Y29685D3*
X32384D3*
X27939Y20477D3*
D28*
X39890Y29730D3*
X28160Y25380D3*
X19510Y11960D3*
X31200Y13520D3*
X33200D3*
D30*
X40480Y20478D3*
X27939Y19843D3*
X40480D3*
X27939Y19207D3*
X40480Y19208D3*
X27939Y18573D3*
X40480D3*
X26040Y11640D3*
X12720Y29355D3*
X13355D3*
X12720Y28720D3*
X13355D3*
X10696Y30717D2*
D17*
X21421D1*
X26103D2*
X26258D1*
X28584D2*
X29058D1*
X31384D2*
X34999D1*
X43198D2*
X51803D1*
X10696Y30621D2*
X21421D1*
X26103D2*
X26258D1*
X28584D2*
X29058D1*
X31384D2*
X34999D1*
X43198D2*
X51803D1*
X10696Y30524D2*
X21421D1*
X26103D2*
X26258D1*
X28584D2*
X29058D1*
X31384D2*
X32899D1*
X43598D2*
X51803D1*
X10696Y30427D2*
X21421D1*
X26103D2*
X26258D1*
X28584D2*
X29058D1*
X31384D2*
X32899D1*
X43598D2*
X51803D1*
X10696Y30331D2*
X21421D1*
X26103D2*
X26258D1*
X28584D2*
X29058D1*
X31384D2*
X32899D1*
X43598D2*
X51803D1*
X10696Y30234D2*
X21421D1*
X26103D2*
X26258D1*
X28584D2*
X29058D1*
X31384D2*
X32899D1*
X43598D2*
X51803D1*
X10696Y30137D2*
X21421D1*
X26103D2*
X26258D1*
X28584D2*
X29058D1*
X31384D2*
X32899D1*
X43598D2*
X51803D1*
X10696Y30041D2*
X21421D1*
X26103D2*
X26258D1*
X28584D2*
X29058D1*
X31384D2*
X32899D1*
X43598D2*
X44227D1*
X47753D2*
X51803D1*
X10696Y29944D2*
X15621D1*
X18497D2*
X21421D1*
X26103D2*
X26258D1*
X28584D2*
X29058D1*
X31384D2*
X32899D1*
X43598D2*
X44227D1*
X47753D2*
X51803D1*
X10696Y29847D2*
X15621D1*
X18497D2*
X21421D1*
X26103D2*
X26258D1*
X28584D2*
X29058D1*
X31384D2*
X32899D1*
X43598D2*
X44227D1*
X47753D2*
X51803D1*
X10696Y29751D2*
X15621D1*
X18497D2*
X21421D1*
X26103D2*
X26258D1*
X28584D2*
X29058D1*
X31384D2*
X32899D1*
X43598D2*
X44227D1*
X47753D2*
X51803D1*
X10696Y29654D2*
X15621D1*
X18497D2*
X21421D1*
X26103D2*
X26258D1*
X28584D2*
X29058D1*
X31384D2*
X32899D1*
X43598D2*
X44227D1*
X47753D2*
X51803D1*
X10696Y29557D2*
X15621D1*
X18497D2*
X21421D1*
X26103D2*
X26258D1*
X28584D2*
X29058D1*
X31384D2*
X32899D1*
X43598D2*
X44227D1*
X47753D2*
X51803D1*
X10696Y29461D2*
X15621D1*
X18497D2*
X24077D1*
X26103D2*
X26258D1*
X28584D2*
X29058D1*
X31384D2*
X32899D1*
X43598D2*
X44227D1*
X47753D2*
X51803D1*
X10696Y29364D2*
X15621D1*
X18497D2*
X24077D1*
X26103D2*
X26258D1*
X28584D2*
X29058D1*
X31384D2*
X32899D1*
X43598D2*
X44227D1*
X47753D2*
X51803D1*
X10696Y29267D2*
X15621D1*
X18497D2*
X24077D1*
X26103D2*
X26258D1*
X28584D2*
X29058D1*
X31384D2*
X32899D1*
X43598D2*
X44227D1*
X47753D2*
X51803D1*
X10696Y29171D2*
X15621D1*
X18497D2*
X24077D1*
X26103D2*
X26258D1*
X28584D2*
X29058D1*
X31384D2*
X32899D1*
X43598D2*
X44227D1*
X47753D2*
X51803D1*
X10696Y29074D2*
X15621D1*
X18497D2*
X24077D1*
X26103D2*
X26258D1*
X28584D2*
X29058D1*
X31384D2*
X32899D1*
X43598D2*
X44227D1*
X47753D2*
X51803D1*
X10696Y28977D2*
X15621D1*
X18497D2*
X26258D1*
X43598D2*
X44227D1*
X47753D2*
X51803D1*
X10696Y28881D2*
X15621D1*
X18497D2*
X26258D1*
X43198D2*
X44227D1*
X47753D2*
X51803D1*
X10696Y28784D2*
X15621D1*
X18497D2*
X21421D1*
X24297D2*
X26258D1*
X43198D2*
X44227D1*
X47753D2*
X51803D1*
X10696Y28687D2*
X15621D1*
X18497D2*
X21421D1*
X24297D2*
X26653D1*
X43198D2*
X44227D1*
X47753D2*
X51803D1*
X10696Y28591D2*
X15621D1*
X18497D2*
X21421D1*
X24297D2*
X26653D1*
X43198D2*
X44227D1*
X47753D2*
X51803D1*
X10696Y28494D2*
X15621D1*
X43195D2*
X44227D1*
X47753D2*
X51803D1*
X10696Y28397D2*
X15621D1*
X43173D2*
X46316D1*
X47344D2*
X51803D1*
X10696Y28301D2*
X15621D1*
X43130D2*
X44216D1*
X47744D2*
X51803D1*
X10696Y28204D2*
X15621D1*
X43056D2*
X44216D1*
X47744D2*
X51803D1*
X10696Y28107D2*
X15621D1*
X42959D2*
X44216D1*
X47744D2*
X51803D1*
X10696Y28011D2*
X15621D1*
X42862D2*
X42996D1*
X47744D2*
X51803D1*
X10696Y27914D2*
X15621D1*
X47744D2*
X51803D1*
X10696Y27817D2*
X15621D1*
X47744D2*
X51803D1*
X10696Y27721D2*
X15621D1*
X47744D2*
X51803D1*
X10696Y27624D2*
X15621D1*
X47744D2*
X51803D1*
X10696Y27527D2*
X15621D1*
X10696Y27431D2*
X15621D1*
X18497D2*
X21421D1*
X24297D2*
X24556D1*
X10696Y27334D2*
X15621D1*
X18497D2*
X21421D1*
X24297D2*
X24556D1*
X10696Y27237D2*
X15621D1*
X18497D2*
X21421D1*
X24297D2*
X24556D1*
X10696Y27141D2*
X15621D1*
X18497D2*
X24556D1*
X10696Y27044D2*
X15621D1*
X18497D2*
X24556D1*
X10696Y26947D2*
X15621D1*
X18497D2*
X24556D1*
X10696Y26851D2*
X15621D1*
X18497D2*
X24556D1*
X10696Y26754D2*
X15621D1*
X18497D2*
X24556D1*
X10696Y26657D2*
X15621D1*
X18497D2*
X24556D1*
X10696Y26561D2*
X15621D1*
X18497D2*
X24556D1*
X10696Y26464D2*
X15621D1*
X18497D2*
X21421D1*
X24297D2*
X24556D1*
X10696Y26367D2*
X15621D1*
X18497D2*
X21421D1*
X24297D2*
X24556D1*
X10696Y26271D2*
X15621D1*
X18497D2*
X21421D1*
X24297D2*
X24556D1*
X10696Y26174D2*
X15621D1*
X18497D2*
X21421D1*
X24297D2*
X24556D1*
X28089D2*
X30853D1*
X10696Y26077D2*
X15621D1*
X18497D2*
X21421D1*
X24297D2*
X24535D1*
X28264D2*
X30941D1*
X10696Y25981D2*
X21421D1*
X24297D2*
X24438D1*
X28536D2*
X31038D1*
X10696Y25884D2*
X21421D1*
X28661D2*
X31133D1*
X10696Y25787D2*
X21421D1*
X28744D2*
X31230D1*
X10696Y25691D2*
X21421D1*
X28801D2*
X31327D1*
X10696Y25594D2*
X21421D1*
X28841D2*
X31424D1*
X10696Y25497D2*
X21421D1*
X27186D2*
X27321D1*
X28864D2*
X31571D1*
X10696Y25401D2*
X21421D1*
X27186D2*
X27417D1*
X28873D2*
X41603D1*
X10696Y25304D2*
X21421D1*
X27186D2*
X27450D1*
X28870D2*
X41603D1*
X10696Y25207D2*
X21421D1*
X27186D2*
X27467D1*
X28851D2*
X41603D1*
X10696Y25111D2*
X13877D1*
X16603D2*
X21421D1*
X27186D2*
X27500D1*
X28820D2*
X41603D1*
X10696Y25014D2*
X13877D1*
X16603D2*
X21421D1*
X27186D2*
X27549D1*
X28770D2*
X41603D1*
X10696Y24917D2*
X13877D1*
X16603D2*
X21421D1*
X27186D2*
X27621D1*
X28700D2*
X41603D1*
X10696Y24821D2*
X13877D1*
X16603D2*
X23527D1*
X27186D2*
X27724D1*
X28597D2*
X41603D1*
X10696Y24724D2*
X13877D1*
X16603D2*
X23527D1*
X27186D2*
X27896D1*
X28425D2*
X41603D1*
X10696Y24627D2*
X13877D1*
X16603D2*
X23527D1*
X27186D2*
X41603D1*
X10696Y24531D2*
X13877D1*
X16603D2*
X23527D1*
X27186D2*
X41603D1*
X10696Y24434D2*
X13877D1*
X16603D2*
X23527D1*
X27186D2*
X41603D1*
X10696Y24337D2*
X13877D1*
X16603D2*
X23527D1*
X27186D2*
X41603D1*
X10696Y24241D2*
X13877D1*
X16603D2*
X23527D1*
X27186D2*
X41603D1*
X10696Y24144D2*
X13877D1*
X16603D2*
X23527D1*
X27186D2*
X41603D1*
X10696Y24047D2*
X12286D1*
X12994D2*
X13877D1*
X16603D2*
X23527D1*
X27186D2*
X41603D1*
X10696Y23951D2*
X12072D1*
X13208D2*
X13877D1*
X16603D2*
X17066D1*
X20314D2*
X23527D1*
X27186D2*
X41603D1*
X10696Y23854D2*
X11933D1*
X13348D2*
X13877D1*
X16603D2*
X17066D1*
X20314D2*
X23527D1*
X27186D2*
X41603D1*
X10696Y23757D2*
X11828D1*
X13451D2*
X13877D1*
X16603D2*
X17066D1*
X20314D2*
X23527D1*
X27186D2*
X41603D1*
X10696Y23661D2*
X11747D1*
X13533D2*
X13877D1*
X16603D2*
X17066D1*
X20314D2*
X23527D1*
X27186D2*
X41603D1*
X10696Y23564D2*
X11681D1*
X13598D2*
X13877D1*
X16603D2*
X17066D1*
X20314D2*
X23527D1*
X27186D2*
X41603D1*
X10696Y23467D2*
X11631D1*
X13650D2*
X13877D1*
X16603D2*
X17066D1*
X20314D2*
X23527D1*
X27186D2*
X41603D1*
X10696Y23371D2*
X11591D1*
X13689D2*
X13877D1*
X16603D2*
X17066D1*
X20314D2*
X23527D1*
X27186D2*
X41603D1*
X10696Y23274D2*
X11561D1*
X13719D2*
X17011D1*
X20314D2*
X23527D1*
X27186D2*
X41603D1*
X10696Y23177D2*
X11541D1*
X13739D2*
X16914D1*
X20314D2*
X23527D1*
X27186D2*
X41603D1*
X10696Y23081D2*
X11530D1*
X13750D2*
X16819D1*
X20314D2*
X23527D1*
X27186D2*
X41603D1*
X10696Y22984D2*
X11527D1*
X13753D2*
X16722D1*
X20314D2*
X23527D1*
X27186D2*
X41603D1*
X10696Y22887D2*
X11531D1*
X13748D2*
X16625D1*
X20314D2*
X23527D1*
X27186D2*
X41603D1*
X10696Y22791D2*
X11546D1*
X13734D2*
X16528D1*
X20314D2*
X23527D1*
X27186D2*
X41603D1*
X10696Y22694D2*
X11569D1*
X13711D2*
X13877D1*
X20314D2*
X23527D1*
X27186D2*
X41603D1*
X10696Y22597D2*
X11602D1*
X13678D2*
X13877D1*
X20314D2*
X20383D1*
X21078D2*
X23527D1*
X27186D2*
X41603D1*
X10696Y22501D2*
X11646D1*
X13634D2*
X13877D1*
X21214D2*
X23527D1*
X27186D2*
X41603D1*
X10696Y22404D2*
X11700D1*
X13580D2*
X13877D1*
X21301D2*
X23527D1*
X27186D2*
X41603D1*
X10696Y22307D2*
X11769D1*
X13511D2*
X13877D1*
X21362D2*
X23527D1*
X27186D2*
X41603D1*
X10696Y22211D2*
X11858D1*
X13423D2*
X13877D1*
X21405D2*
X22067D1*
X22572D2*
X23527D1*
X27186D2*
X41603D1*
X10696Y22114D2*
X11971D1*
X13309D2*
X13877D1*
X21431D2*
X21889D1*
X22751D2*
X23527D1*
X27186D2*
X41603D1*
X10696Y22017D2*
X12125D1*
X13155D2*
X13877D1*
X21442D2*
X21785D1*
X22856D2*
X23527D1*
X27186D2*
X41603D1*
X10696Y21921D2*
X12394D1*
X12886D2*
X13877D1*
X22928D2*
X23527D1*
X27186D2*
X41603D1*
X10696Y21824D2*
X13877D1*
X22978D2*
X23527D1*
X27186D2*
X41603D1*
X10696Y21727D2*
X13877D1*
X23011D2*
X23527D1*
X27186D2*
X41603D1*
X10696Y21631D2*
X13877D1*
X23030D2*
X23527D1*
X27186D2*
X41603D1*
X10696Y21534D2*
X13877D1*
X23033D2*
X23527D1*
X27186D2*
X41603D1*
X10696Y21437D2*
X13877D1*
X23025D2*
X23527D1*
X27186D2*
X41603D1*
X10696Y21341D2*
X13877D1*
X23001D2*
X23527D1*
X27186D2*
X41603D1*
X10696Y21244D2*
X13877D1*
X22964D2*
X23527D1*
X27186D2*
X41603D1*
X10696Y21147D2*
X13877D1*
X22908D2*
X23527D1*
X27186D2*
X41603D1*
X10696Y21051D2*
X13877D1*
X22848D2*
X23527D1*
X27186D2*
X41603D1*
X10696Y20954D2*
X13877D1*
X23076D2*
X23527D1*
X27186D2*
X41603D1*
X10696Y20857D2*
X13877D1*
X23184D2*
X23527D1*
X27186D2*
X41603D1*
X10696Y20761D2*
X13883D1*
X23281D2*
X23527D1*
X27186D2*
X41603D1*
X10696Y20664D2*
X13877D1*
X23378D2*
X23527D1*
X27186D2*
X41603D1*
X10696Y20567D2*
X13877D1*
X23467D2*
X23527D1*
X27186D2*
X41603D1*
X10696Y20471D2*
X13877D1*
X27186D2*
X41603D1*
X10696Y20374D2*
X13877D1*
X27186D2*
X41603D1*
X10696Y20277D2*
X13877D1*
X27186D2*
X41603D1*
X10696Y20181D2*
X13877D1*
X27186D2*
X41603D1*
X10696Y20084D2*
X13877D1*
X27186D2*
X41603D1*
X10696Y19987D2*
X13877D1*
X27186D2*
X41603D1*
X10696Y19891D2*
X13877D1*
X27186D2*
X41603D1*
X10696Y19794D2*
X13877D1*
X27186D2*
X41603D1*
X10696Y19697D2*
X13877D1*
X27186D2*
X41603D1*
X10696Y19601D2*
X12567D1*
X12712D2*
X13877D1*
X27186D2*
X41603D1*
X10696Y19504D2*
X12175D1*
X13106D2*
X13877D1*
X27186D2*
X41603D1*
X10696Y19407D2*
X12003D1*
X13276D2*
X13877D1*
X27186D2*
X41603D1*
X10696Y19311D2*
X11883D1*
X13397D2*
X13877D1*
X27186D2*
X41603D1*
X10696Y19214D2*
X11789D1*
X13491D2*
X13877D1*
X27186D2*
X41603D1*
X10696Y19117D2*
X11716D1*
X13564D2*
X13877D1*
X27186D2*
X41603D1*
X10696Y19021D2*
X11658D1*
X13622D2*
X13877D1*
X27186D2*
X41603D1*
X10696Y18924D2*
X11611D1*
X13669D2*
X13877D1*
X27186D2*
X41603D1*
X10696Y18827D2*
X11577D1*
X13703D2*
X13877D1*
X27186D2*
X41603D1*
X10696Y18731D2*
X11550D1*
X13730D2*
X13883D1*
X27186D2*
X41603D1*
X10696Y18634D2*
X11535D1*
X13745D2*
X13883D1*
X27186D2*
X41603D1*
X10696Y18537D2*
X11527D1*
X13753D2*
X13883D1*
X27186D2*
X41603D1*
X10696Y18441D2*
X11528D1*
X13751D2*
X13883D1*
X27186D2*
X41603D1*
X10696Y18344D2*
X11538D1*
X13742D2*
X13883D1*
X27186D2*
X41603D1*
X10696Y18247D2*
X11555D1*
X13725D2*
X13883D1*
X27186D2*
X41603D1*
X10696Y18151D2*
X11583D1*
X13697D2*
X13877D1*
X27186D2*
X41603D1*
X10696Y18054D2*
X11621D1*
X13661D2*
X13877D1*
X27186D2*
X41603D1*
X10696Y17957D2*
X11669D1*
X13612D2*
X13877D1*
X27186D2*
X41603D1*
X10696Y17861D2*
X11730D1*
X13550D2*
X13877D1*
X27186D2*
X41603D1*
X10696Y17764D2*
X11806D1*
X13473D2*
X13877D1*
X27186D2*
X41603D1*
X10696Y17667D2*
X11905D1*
X13376D2*
X13877D1*
X27186D2*
X41603D1*
X10696Y17571D2*
X12033D1*
X13247D2*
X13877D1*
X27186D2*
X41603D1*
X10696Y17474D2*
X12221D1*
X13059D2*
X13877D1*
X27186D2*
X41603D1*
X10696Y17377D2*
X13877D1*
X27186D2*
X41603D1*
X10696Y17281D2*
X13877D1*
X27186D2*
X41603D1*
X10696Y17184D2*
X13877D1*
X27186D2*
X41603D1*
X10696Y17087D2*
X13877D1*
X27186D2*
X41603D1*
X10696Y16991D2*
X13877D1*
X27186D2*
X41603D1*
X10696Y16894D2*
X13877D1*
X24397D2*
X24494D1*
X27186D2*
X41603D1*
X10696Y16797D2*
X13877D1*
X24300D2*
X24494D1*
X27186D2*
X41603D1*
X10696Y16701D2*
X13877D1*
X24203D2*
X24494D1*
X27186D2*
X41603D1*
X10696Y16604D2*
X13877D1*
X24106D2*
X24494D1*
X27186D2*
X41603D1*
X10696Y16507D2*
X13877D1*
X24009D2*
X24494D1*
X27186D2*
X41603D1*
X10696Y16411D2*
X13877D1*
X23912D2*
X24494D1*
X27186D2*
X41603D1*
X10696Y16314D2*
X13877D1*
X23816D2*
X24494D1*
X27186D2*
X41603D1*
X10696Y16217D2*
X16077D1*
X23720D2*
X24494D1*
X27186D2*
X41603D1*
X10696Y16121D2*
X16077D1*
X23623D2*
X24494D1*
X27186D2*
X41603D1*
X10696Y16024D2*
X16077D1*
X23526D2*
X24494D1*
X27186D2*
X41603D1*
X10696Y15927D2*
X16077D1*
X23430D2*
X24494D1*
X27186D2*
X41603D1*
X10696Y15831D2*
X16077D1*
X23333D2*
X24494D1*
X27186D2*
X41603D1*
X10696Y15734D2*
X16077D1*
X23236D2*
X24494D1*
X27186D2*
X41603D1*
X10696Y15637D2*
X16077D1*
X23139D2*
X24494D1*
X27186D2*
X41603D1*
X10696Y15541D2*
X16077D1*
X23039D2*
X24494D1*
X27186D2*
X41603D1*
X10696Y15444D2*
X16077D1*
X22851D2*
X24494D1*
X27186D2*
X41603D1*
X10696Y15347D2*
X16077D1*
X22614D2*
X24494D1*
X27186D2*
X41603D1*
X10696Y15251D2*
X16077D1*
X22614D2*
X24494D1*
X27186D2*
X41603D1*
X10696Y15154D2*
X16886D1*
X22614D2*
X24494D1*
X27186D2*
X41603D1*
X10696Y15057D2*
X16886D1*
X22614D2*
X24494D1*
X27186D2*
X41603D1*
X10696Y14961D2*
X16886D1*
X22614D2*
X24494D1*
X27186D2*
X41603D1*
X10696Y14864D2*
X16886D1*
X22614D2*
X24494D1*
X27186D2*
X41603D1*
X10696Y14767D2*
X16886D1*
X22614D2*
X24494D1*
X27186D2*
X41603D1*
X10696Y14671D2*
X16886D1*
X22614D2*
X24494D1*
X27186D2*
X41603D1*
X10696Y14574D2*
X16886D1*
X22614D2*
X24494D1*
X27186D2*
X41603D1*
X10696Y14477D2*
X16886D1*
X22614D2*
X24494D1*
X27186D2*
X41603D1*
X10696Y14381D2*
X16886D1*
X22614D2*
X24494D1*
X27186D2*
X41603D1*
X10696Y14284D2*
X16886D1*
X22614D2*
X24494D1*
X27186D2*
X41603D1*
X10696Y14187D2*
X16886D1*
X22614D2*
X24494D1*
X27186D2*
X30967D1*
X31433D2*
X32967D1*
X33433D2*
X38967D1*
X39433D2*
X40139D1*
X40461D2*
X41603D1*
X10696Y14091D2*
X16886D1*
X22614D2*
X24494D1*
X27186D2*
X30778D1*
X31622D2*
X32778D1*
X33622D2*
X38778D1*
X39622D2*
X39908D1*
X40692D2*
X41603D1*
X10696Y13994D2*
X16886D1*
X22614D2*
X24511D1*
X27169D2*
X30671D1*
X31730D2*
X32671D1*
X33730D2*
X38671D1*
X39730D2*
X39789D1*
X40811D2*
X41603D1*
X10696Y13897D2*
X16886D1*
X22614D2*
X24594D1*
X27086D2*
X30596D1*
X31805D2*
X32596D1*
X33805D2*
X38596D1*
X40891D2*
X41603D1*
X10696Y13801D2*
X16886D1*
X22614D2*
X22866D1*
X24594D2*
X24681D1*
X26509D2*
X30544D1*
X31855D2*
X32544D1*
X33855D2*
X38544D1*
X40947D2*
X41603D1*
X10696Y13704D2*
X16886D1*
X22614D2*
X22866D1*
X24594D2*
X26483D1*
X29497D2*
X30511D1*
X31889D2*
X32511D1*
X33889D2*
X38511D1*
X40983D2*
X41603D1*
X10696Y13607D2*
X16886D1*
X22614D2*
X22866D1*
X24594D2*
X26375D1*
X29605D2*
X30492D1*
X31908D2*
X32492D1*
X33908D2*
X38492D1*
X41006D2*
X41603D1*
X10696Y13511D2*
X14441D1*
X15459D2*
X16886D1*
X22614D2*
X22866D1*
X24594D2*
X26278D1*
X29689D2*
X30486D1*
X31914D2*
X32486D1*
X33914D2*
X38486D1*
X41014D2*
X41603D1*
X10696Y13414D2*
X14216D1*
X15684D2*
X16886D1*
X20414D2*
X22866D1*
X24594D2*
X26181D1*
X29739D2*
X30494D1*
X31906D2*
X32494D1*
X33906D2*
X38494D1*
X41108D2*
X41603D1*
X10696Y13317D2*
X14056D1*
X15844D2*
X16886D1*
X20414D2*
X22866D1*
X29766D2*
X30516D1*
X31884D2*
X32516D1*
X33884D2*
X38516D1*
X41205D2*
X41603D1*
X10696Y13221D2*
X13931D1*
X15969D2*
X16886D1*
X20414D2*
X22866D1*
X10696Y13124D2*
X13828D1*
X16072D2*
X16886D1*
X20414D2*
X22866D1*
X10696Y13027D2*
X13741D1*
X16159D2*
X16886D1*
X20414D2*
X22866D1*
X10696Y12931D2*
X13667D1*
X16233D2*
X16886D1*
X20414D2*
X22866D1*
X10696Y12834D2*
X13605D1*
X16295D2*
X16886D1*
X20414D2*
X22866D1*
X10696Y12737D2*
X13552D1*
X16348D2*
X16886D1*
X20414D2*
X22866D1*
X26950D2*
X28747D1*
X10696Y12641D2*
X13508D1*
X16392D2*
X16886D1*
X20414D2*
X22866D1*
X26853D2*
X28747D1*
X10696Y12544D2*
X13471D1*
X16430D2*
X16886D1*
X20414D2*
X22866D1*
X26756D2*
X28747D1*
X10696Y12447D2*
X13441D1*
X16459D2*
X16886D1*
X20414D2*
X22866D1*
X28066D2*
X28342D1*
X10696Y12351D2*
X13419D1*
X16481D2*
X16886D1*
X20414D2*
X22866D1*
X24594D2*
X26338D1*
X28066D2*
X28342D1*
X10696Y12254D2*
X13402D1*
X16498D2*
X16886D1*
X20414D2*
X22866D1*
X24594D2*
X26338D1*
X28066D2*
X28342D1*
X10696Y12157D2*
X13391D1*
X16509D2*
X16886D1*
X20414D2*
X22866D1*
X24594D2*
X26338D1*
X28066D2*
X28342D1*
X10696Y12061D2*
X13388D1*
X16512D2*
X18803D1*
X20217D2*
X22866D1*
X24594D2*
X26338D1*
X28066D2*
X28342D1*
X10696Y11964D2*
X13389D1*
X16511D2*
X18797D1*
X20223D2*
X22866D1*
X24594D2*
X26338D1*
X28066D2*
X28342D1*
X10696Y11867D2*
X13397D1*
X16503D2*
X18802D1*
X20217D2*
X22866D1*
X24594D2*
X26338D1*
X28066D2*
X28342D1*
X10696Y11771D2*
X13411D1*
X16489D2*
X18822D1*
X20198D2*
X22866D1*
X24594D2*
X26338D1*
X28066D2*
X28342D1*
X10696Y11674D2*
X13431D1*
X16469D2*
X18856D1*
X20162D2*
X22866D1*
X24594D2*
X26338D1*
X28066D2*
X28342D1*
X10696Y11577D2*
X13458D1*
X16442D2*
X18910D1*
X20111D2*
X22866D1*
X24594D2*
X26338D1*
X28066D2*
X28342D1*
X10696Y11481D2*
X13491D1*
X16409D2*
X18985D1*
X20036D2*
X22866D1*
X24594D2*
X26338D1*
X28066D2*
X28342D1*
X10696Y11384D2*
X13533D1*
X16367D2*
X19096D1*
X19925D2*
X22866D1*
X24594D2*
X26338D1*
X28066D2*
X28342D1*
X10696Y11287D2*
X13581D1*
X16319D2*
X19294D1*
X19726D2*
X22866D1*
X24594D2*
X26338D1*
X28066D2*
X28342D1*
X10696Y11191D2*
X13639D1*
X16261D2*
X22866D1*
X24594D2*
X26338D1*
X28066D2*
X28342D1*
X10696Y11094D2*
X13708D1*
X16192D2*
X22866D1*
X24594D2*
X26338D1*
X28066D2*
X28342D1*
X10696Y10997D2*
X13789D1*
X16111D2*
X22866D1*
X24594D2*
X26338D1*
X28066D2*
X28342D1*
X10696Y10901D2*
X13885D1*
X16016D2*
X22866D1*
X24594D2*
X26338D1*
X28066D2*
X28342D1*
X10696Y10804D2*
X14000D1*
X15900D2*
X22866D1*
X24594D2*
X26338D1*
X28066D2*
X28342D1*
X10696Y10707D2*
X14142D1*
X15758D2*
X22866D1*
X24594D2*
X28814D1*
X31375Y30814D2*
Y29016D1*
X32910Y29017D1*
X32908Y29390D1*
Y30598D1*
X34717Y30596D1*
X34758Y30598D1*
X35010D1*
X35008Y30710D1*
X35018Y30809D1*
X35020Y30814D1*
X31375D1*
X29067Y29016D2*
Y30814D1*
X28575D1*
Y29017D1*
X29069D1*
X26664Y28689D2*
X26267D1*
Y30815D1*
X26094Y30814D1*
Y29006D1*
X24086D1*
Y29489D1*
X23738Y29487D1*
X21430D1*
Y30814D1*
X10686D1*
Y10686D1*
X14191D1*
X14091Y10746D1*
X13970Y10835D1*
X13859Y10935D1*
X13757Y11045D1*
X13667Y11165D1*
X13588Y11292D1*
X13523Y11427D1*
X13470Y11568D1*
X13432Y11713D1*
X13407Y11860D1*
X13397Y12010D1*
X13401Y12160D1*
X13420Y12309D1*
X13453Y12455D1*
X13500Y12597D1*
X13561Y12735D1*
X13634Y12865D1*
X13720Y12988D1*
X13817Y13102D1*
X13925Y13207D1*
X14042Y13300D1*
X14168Y13382D1*
X14301Y13451D1*
X14440Y13507D1*
X14584Y13550D1*
X14731Y13578D1*
X14880Y13592D1*
X15030Y13591D1*
X15179Y13576D1*
X15326Y13547D1*
X15470Y13504D1*
X15609Y13447D1*
X15741Y13377D1*
X15866Y13294D1*
X15983Y13200D1*
X16090Y13095D1*
X16186Y12980D1*
X16271Y12857D1*
X16344Y12725D1*
X16404Y12588D1*
X16450Y12445D1*
X16482Y12299D1*
X16499Y12150D1*
X16503Y12040D1*
X16496Y11890D1*
X16474Y11742D1*
X16439Y11596D1*
X16389Y11455D1*
X16326Y11319D1*
X16250Y11190D1*
X16162Y11068D1*
X16062Y10956D1*
X15953Y10854D1*
X15834Y10763D1*
X15710Y10686D1*
X22876D1*
Y13804D1*
X24584D1*
Y13402D1*
X24880Y13404D1*
X26182D1*
X26424Y13646D1*
X26501Y13710D1*
X26589Y13756D1*
X26685Y13785D1*
X26784Y13794D1*
X29200D1*
X29299Y13784D1*
X29395Y13755D1*
X29483Y13707D1*
X29559Y13643D1*
X29650Y13549D1*
X29705Y13466D1*
X29743Y13374D1*
X29762Y13276D1*
X29763Y13256D1*
X30548Y13257D1*
X30528Y13312D1*
X30505Y13409D1*
X30496Y13508D1*
X30502Y13608D1*
X30521Y13706D1*
X30554Y13800D1*
X30600Y13889D1*
X30659Y13970D1*
X30728Y14042D1*
X30807Y14104D1*
X30893Y14154D1*
X30986Y14191D1*
X31083Y14214D1*
X31182Y14224D1*
X31282Y14219D1*
X31380Y14200D1*
X31475Y14168D1*
X31564Y14123D1*
X31646Y14065D1*
X31718Y13996D1*
X31780Y13918D1*
X31831Y13832D1*
X31869Y13740D1*
X31893Y13643D1*
X31904Y13543D1*
X31902Y13470D1*
X31888Y13371D1*
X31860Y13275D1*
X31852Y13256D1*
X32548Y13257D1*
X32528Y13312D1*
X32505Y13409D1*
X32496Y13508D1*
X32502Y13608D1*
X32521Y13706D1*
X32554Y13800D1*
X32600Y13889D1*
X32659Y13970D1*
X32728Y14042D1*
X32807Y14104D1*
X32893Y14154D1*
X32986Y14191D1*
X33083Y14214D1*
X33182Y14224D1*
X33282Y14219D1*
X33380Y14200D1*
X33475Y14168D1*
X33564Y14123D1*
X33646Y14065D1*
X33718Y13996D1*
X33780Y13918D1*
X33831Y13832D1*
X33869Y13740D1*
X33893Y13643D1*
X33904Y13543D1*
X33902Y13470D1*
X33888Y13371D1*
X33860Y13275D1*
X33852Y13256D1*
X38548Y13257D1*
X38528Y13312D1*
X38505Y13409D1*
X38496Y13508D1*
X38502Y13608D1*
X38521Y13706D1*
X38554Y13800D1*
X38600Y13889D1*
X38659Y13970D1*
X38728Y14042D1*
X38807Y14104D1*
X38893Y14154D1*
X38986Y14191D1*
X39083Y14214D1*
X39182Y14224D1*
X39282Y14219D1*
X39380Y14200D1*
X39475Y14168D1*
X39564Y14123D1*
X39646Y14065D1*
X39718Y13996D1*
X39759Y13950D1*
X39828Y14022D1*
X39907Y14084D1*
X39993Y14134D1*
X40086Y14171D1*
X40183Y14194D1*
X40282Y14204D1*
X40382Y14199D1*
X40480Y14180D1*
X40575Y14148D1*
X40664Y14103D1*
X40746Y14045D1*
X40818Y13976D1*
X40881Y13898D1*
X40931Y13812D1*
X40969Y13720D1*
X40993Y13623D1*
X41004Y13523D1*
Y13508D1*
X41256Y13256D1*
X41613Y13257D1*
Y25458D1*
X41510Y25456D1*
X31730Y25458D1*
X31632Y25478D1*
X31540Y25517D1*
X31457Y25573D1*
X31388Y25639D1*
X30883Y26148D1*
X30870Y26164D1*
X30830Y26183D1*
X28069D1*
X28169Y26084D1*
X28242Y26079D1*
X28340Y26060D1*
X28435Y26028D1*
X28524Y25983D1*
X28606Y25925D1*
X28678Y25856D1*
X28740Y25778D1*
X28791Y25692D1*
X28829Y25600D1*
X28853Y25503D1*
X28864Y25403D1*
X28862Y25330D1*
X28848Y25231D1*
X28820Y25135D1*
X28779Y25044D1*
X28725Y24960D1*
X28660Y24884D1*
X28585Y24819D1*
X28501Y24764D1*
X28410Y24722D1*
X28315Y24693D1*
X28216Y24678D1*
X28116Y24677D1*
X28017Y24691D1*
X27921Y24718D1*
X27829Y24758D1*
X27745Y24812D1*
X27668Y24876D1*
X27602Y24951D1*
X27547Y25034D1*
X27504Y25124D1*
X27474Y25220D1*
X27459Y25318D1*
X27456Y25373D1*
X27344Y25483D1*
X27177Y25650D1*
Y15710D1*
Y14080D1*
X27171Y14030D1*
X27154Y13983D1*
X27127Y13942D1*
X27091Y13907D1*
X27048Y13882D1*
X27000Y13867D1*
X26960Y13863D1*
X26499D1*
X26500Y13795D1*
X24692D1*
Y13865D1*
X24623Y13886D1*
X24582Y13913D1*
X24547Y13949D1*
X24522Y13992D1*
X24507Y14040D1*
X24503Y14080D1*
Y17063D1*
X24477Y17009D1*
X24419Y16928D1*
X24043Y16550D1*
X23029Y15540D1*
X22946Y15485D1*
X22854Y15447D1*
X22756Y15428D1*
X22660Y15426D1*
X22602D1*
X22604Y15244D1*
Y13436D1*
X20404D1*
Y12146D1*
X20190D1*
X20210Y12033D1*
X20214Y11960D1*
X20207Y11860D1*
X20186Y11763D1*
X20151Y11669D1*
X20103Y11581D1*
X20044Y11501D1*
X19973Y11430D1*
X19894Y11370D1*
X19806Y11321D1*
X19713Y11286D1*
X19615Y11264D1*
X19516Y11256D1*
X19416Y11262D1*
X19318Y11283D1*
X19224Y11317D1*
X19136Y11364D1*
X19055Y11422D1*
X18984Y11492D1*
X18923Y11571D1*
X18874Y11658D1*
X18838Y11752D1*
X18815Y11849D1*
X18806Y11948D1*
X18812Y12048D1*
X18832Y12148D1*
X18596Y12146D1*
X16896D1*
X16898Y13854D1*
X16896Y14026D1*
Y15187D1*
X16224Y15186D1*
X16086D1*
Y16294D1*
X15094Y16295D1*
X13886D1*
Y18203D1*
X13894D1*
X13893Y18796D1*
X13886Y18795D1*
Y20703D1*
X13894D1*
X13893Y20796D1*
X13886Y20795D1*
Y22703D1*
X16450D1*
X17075Y23328D1*
X17076Y24014D1*
X18596Y24016D1*
Y24044D1*
X20304D1*
Y22540D1*
X20379Y22590D1*
X20469Y22634D1*
X20564Y22664D1*
X20663Y22681D1*
X20762Y22683D1*
X20862Y22672D1*
X20958Y22646D1*
X21050Y22607D1*
X21136Y22555D1*
X21213Y22492D1*
X21281Y22418D1*
X21337Y22336D1*
X21382Y22247D1*
X21413Y22152D1*
X21430Y22053D1*
X21434Y21980D1*
X21432Y21925D1*
X21727Y21927D1*
X21779Y22000D1*
X21848Y22072D1*
X21927Y22134D1*
X22013Y22184D1*
X22106Y22221D1*
X22203Y22244D1*
X22302Y22254D1*
X22402Y22249D1*
X22500Y22230D1*
X22595Y22198D1*
X22684Y22153D1*
X22766Y22095D1*
X22838Y22026D1*
X22901Y21948D1*
X22951Y21862D1*
X22989Y21770D1*
X23013Y21673D1*
X23024Y21573D1*
X23022Y21500D1*
X23008Y21401D1*
X22980Y21305D1*
X22939Y21214D1*
X22885Y21130D1*
X22838Y21074D1*
X22859Y21044D1*
X22955Y21015D1*
X23020Y20983D1*
X23103Y20927D1*
X23172Y20861D1*
X23440Y20589D1*
X23495Y20506D1*
X23533Y20414D1*
X23535Y20406D1*
X23536Y20660D1*
X23537Y24880D1*
X23528Y24887D1*
X21430D1*
Y26545D1*
X24288D1*
Y25820D1*
X24566Y26099D1*
Y27513D1*
X24287Y27512D1*
X24288Y27187D1*
X21430D1*
Y27514D1*
X21259Y27512D1*
X18488D1*
Y26037D1*
X15630D1*
Y29995D1*
X18488D1*
Y28519D1*
X18659Y28520D1*
X21429D1*
X21430Y28845D1*
X24288D1*
Y28519D1*
X24459Y28520D1*
X26347D1*
Y28563D1*
X26664D1*
X26663Y28689D1*
X44246Y30134D2*
X47744D1*
Y28426D1*
X47333D1*
X47334Y28316D1*
X47734Y28317D1*
Y27596D1*
X51813Y27597D1*
X51814Y28086D1*
Y30814D1*
X43178D1*
X43187Y30752D1*
X43189Y30660D1*
Y30596D1*
X43431Y30598D1*
X43589D1*
Y28890D1*
X43187D1*
X43189Y28594D1*
X43187Y28505D1*
X43167Y28407D1*
X43128Y28315D1*
X43072Y28232D1*
X43006Y28163D1*
X42439Y27596D1*
X42485Y27597D1*
X42764Y27876D1*
X42841Y27940D1*
X42929Y27986D1*
X43025Y28015D1*
X43124Y28024D1*
X44228D1*
X44226Y28209D1*
Y28317D1*
X46034Y28315D1*
X46076Y28317D1*
X46328D1*
X46326Y28427D1*
X45936Y28426D1*
X44236D1*
Y30134D1*
X44246D1*
X13896Y25203D2*
X16594D1*
Y23295D1*
X13886D1*
Y25203D1*
X13896D1*
X13743Y18449D2*
X13734Y18349D1*
X13716Y18251D1*
X13689Y18155D1*
X13654Y18061D1*
X13610Y17971D1*
X13558Y17886D1*
X13499Y17805D1*
X13433Y17730D1*
X13360Y17662D1*
X13281Y17600D1*
X13197Y17546D1*
X13109Y17499D1*
X13016Y17461D1*
X12921Y17431D1*
X12823Y17410D1*
X12724Y17398D1*
X12624Y17395D1*
X12524Y17401D1*
X12426Y17416D1*
X12328Y17440D1*
X12234Y17472D1*
X12143Y17513D1*
X12056Y17562D1*
X11973Y17619D1*
X11896Y17683D1*
X11826Y17753D1*
X11762Y17830D1*
X11705Y17912D1*
X11655Y17999D1*
X11614Y18090D1*
X11582Y18185D1*
X11557Y18282D1*
X11542Y18381D1*
X11536Y18480D1*
X11539Y18580D1*
X11551Y18680D1*
X11572Y18777D1*
X11601Y18873D1*
X11639Y18965D1*
X11686Y19054D1*
X11740Y19138D1*
X11801Y19217D1*
X11870Y19290D1*
X11944Y19356D1*
X12025Y19415D1*
X12110Y19467D1*
X12200Y19511D1*
X12293Y19547D1*
X12390Y19574D1*
X12488Y19592D1*
X12588Y19601D1*
X12688Y19602D1*
X12787Y19593D1*
X12885Y19575D1*
X12982Y19549D1*
X13075Y19513D1*
X13165Y19470D1*
X13251Y19418D1*
X13332Y19359D1*
X13407Y19293D1*
X13475Y19220D1*
X13537Y19142D1*
X13592Y19058D1*
X13638Y18970D1*
X13677Y18878D1*
X13707Y18782D1*
X13728Y18684D1*
X13741Y18585D1*
X13744Y18499D1*
X13743Y18449D1*
Y22949D2*
X13734Y22849D1*
X13716Y22751D1*
X13689Y22655D1*
X13654Y22561D1*
X13610Y22471D1*
X13558Y22386D1*
X13499Y22305D1*
X13433Y22230D1*
X13360Y22162D1*
X13281Y22100D1*
X13197Y22046D1*
X13109Y21999D1*
X13016Y21961D1*
X12921Y21931D1*
X12823Y21910D1*
X12724Y21898D1*
X12624Y21895D1*
X12524Y21901D1*
X12426Y21916D1*
X12328Y21940D1*
X12234Y21972D1*
X12143Y22013D1*
X12056Y22062D1*
X11973Y22119D1*
X11896Y22183D1*
X11826Y22253D1*
X11762Y22330D1*
X11705Y22412D1*
X11655Y22499D1*
X11614Y22590D1*
X11582Y22685D1*
X11557Y22782D1*
X11542Y22881D1*
X11536Y22980D1*
X11539Y23080D1*
X11551Y23180D1*
X11572Y23277D1*
X11601Y23373D1*
X11639Y23465D1*
X11686Y23554D1*
X11740Y23638D1*
X11801Y23717D1*
X11870Y23790D1*
X11944Y23856D1*
X12025Y23915D1*
X12110Y23967D1*
X12200Y24011D1*
X12293Y24047D1*
X12390Y24074D1*
X12488Y24092D1*
X12588Y24101D1*
X12688Y24102D1*
X12787Y24093D1*
X12885Y24075D1*
X12982Y24049D1*
X13075Y24013D1*
X13165Y23970D1*
X13251Y23918D1*
X13332Y23859D1*
X13407Y23793D1*
X13475Y23720D1*
X13537Y23642D1*
X13592Y23558D1*
X13638Y23470D1*
X13677Y23377D1*
X13707Y23282D1*
X13728Y23184D1*
X13741Y23085D1*
X13744Y22999D1*
X13743Y22949D1*
X24584Y12104D2*
Y10686D1*
X28825D1*
X28823Y10734D1*
X28352Y10735D1*
Y12543D1*
X28756D1*
Y12785D1*
X28250Y12786D1*
X26989D1*
X26747Y12543D1*
X28055D1*
Y10735D1*
X26347D1*
Y12396D1*
X24582D1*
X24584Y12154D1*
X24582Y11996D1*
X29067Y29942D2*
D14*
X31375D1*
X45140Y30134D2*
Y28426D1*
X44236Y29280D2*
X45140D1*
X15240Y25203D2*
Y23295D1*
X13886Y24249D2*
X16594D1*
X19450Y24044D2*
Y23140D1*
X20304D1*
X22876Y11200D2*
X24584D1*
X27201Y12543D2*
Y10735D1*
X26347Y11639D2*
X28055D1*
X22859Y26545D2*
Y24887D1*
X21430Y25716D2*
X22859D1*
D18*
X30221Y29942D3*
X27421D3*
D19*
X45140Y29280D3*
X46840D3*
D20*
X15240Y17249D3*
Y19749D3*
Y21749D3*
Y24249D3*
D21*
X12640Y15049D3*
Y26449D3*
D23*
X21960Y18650D3*
Y20550D3*
X19660Y19600D3*
D24*
X17930Y21410D3*
Y23110D3*
X19450Y23140D3*
Y21440D3*
D19*
X21770Y17070D3*
X20070D3*
D24*
X17900Y19630D3*
Y17930D3*
D19*
X19500Y14630D3*
X17800D3*
D24*
X23730Y11200D3*
Y12900D3*
D19*
X19500Y13000D3*
X17800D3*
X33812Y29744D3*
X35512D3*
X42685D3*
X40985D3*
X37095D3*
X38795D3*
X46830Y27463D3*
X45130D3*
D24*
X39201Y11639D3*
X31201D3*
X27201D3*
X29206D3*
X33206D3*
X39201Y27659D3*
X31201D3*
X35201Y11639D3*
X37206D3*
X27201Y27659D3*
X29206D3*
X33206D3*
X35201D3*
X37206D3*
X41206D3*
D19*
X25596Y16649D3*
Y20649D3*
Y18649D3*
Y24649D3*
Y22649D3*
Y14649D3*
D24*
X41206Y11639D3*
D25*
X22859Y25716D3*
Y28016D3*
Y30316D3*
D26*
X17059Y28016D3*
D27*
X21500Y14540D3*
Y12000D3*
G36*
X16440Y16830D2*
X17720D1*
Y15540D1*
X16440D1*
Y16830D1*
G37*
G36*
X24440Y30670D2*
X25740D1*
Y29360D1*
X24440D1*
Y30670D1*
G37*
G36*
X17710Y15550D2*
X17720Y17140D1*
X17140D1*
X17270Y17880D1*
X16440D1*
Y16830D1*
X16990Y15540D1*
D1*
X17710Y15550D1*
G37*
G36*
X31431Y30796D2*
X32860D1*
Y29209D1*
X31431D1*
Y30796D1*
G37*
M02*
